<?xml version="1.0" encoding="utf-8"?>
<svg viewBox="0 0 500 500" xmlns="http://www.w3.org/2000/svg">
  <g fill-rule="evenodd" transform="matrix(5.85244083404541, 0, 0, 6.150761127471924, -47.88624954223633, -64.06141662597655)" style="">
    <path d="m82.004 49.094-12.016-8.0117c-1.9375 4.3594-6.3008 7.4141-11.371 7.4141-5.5469 0-10.258-3.6562-11.855-8.6797l-26.301 6.3125c-3.4414 0.82422-5.8711 3.9062-5.8711 7.4453v11.848c0 2.0312 0.80469 3.9766 2.2422 5.4141l11.922 11.922c1.9023 1.9023 4.6602 2.6641 7.2695 2.0117l43.59-10.898c3.4102-0.85156 5.8008-3.9141 5.8008-7.4258l-0.003906-10.98c0-2.5586-1.2773-4.9492-3.4062-6.3711zm-8.4766 7.6016-36.852 9.3086c-0.18359 0.046875-0.36719 0.070313-0.55469 0.10547v10.145c0 1.3203-1.0703 2.3906-2.3945 2.3906-1.3203 0-2.3945-1.0703-2.3945-2.3906l0.003907-10.418c-1.6055-0.48438-3.1055-1.3203-4.3125-2.5547l-4.8242-4.9414c-0.92578-0.94531-0.90625-2.4609 0.039062-3.3867 0.94531-0.91797 2.4609-0.90234 3.3828 0.042969l4.8242 4.9453c1.3086 1.3398 3.2461 1.8828 5.0547 1.4258l36.855-9.3086c1.2734-0.33203 2.5781 0.44922 2.9062 1.7344 0.32422 1.2812-0.45312 2.582-1.7344 2.9023z" style="fill: rgb(0, 227, 255);"/>
    <path d="m55.66 23.773c2.4258 0 4.3867-1.9648 4.3867-4.3867s-1.9609-4.3867-4.3867-4.3867c-2.4219 0-4.3867 1.9648-4.3867 4.3867 0.003906 2.4219 1.9688 4.3867 4.3867 4.3867zm17.23-1.1172c-2.4219 0-4.3867 1.9648-4.3867 4.3867s1.9648 4.3867 4.3867 4.3867c2.4258 0 4.3867-1.9648 4.3867-4.3867s-1.9648-4.3867-4.3867-4.3867zm-14.277 5.7422c-4.2266 0-7.6562 3.4297-7.6562 7.6562 0 4.2266 3.4297 7.6562 7.6562 7.6562 4.2305 0 7.6562-3.4297 7.6562-7.6562 0-4.2266-3.4258-7.6562-7.6562-7.6562z" style="fill: rgb(0, 227, 255);"/>
  </g>
</svg>